<svg width="20" height="24" viewBox="0 0 20 24" version="1.1" xmlns="http://www.w3.org/2000/svg" xmlns:xlink="http://www.w3.org/1999/xlink">
<g id="CanvasLogo" transform="translate(-7169 -1362)">
<g id="UnionLogo">
<use xlink:href="#path0_fill1" transform="translate(7169 1362)" fill="#3E8FE4"/>
</g>
</g>
<defs>
<path id="path0_fill1" fill-rule="evenodd" d="M 6.49902 0L 8.96924 1.72144L 9 1.72144L 9 14.7091L 9 15.9999C 9 17.6569 10.3433 19 12 19C 13.6567 19 15 17.6569 15 16C 15 14.3431 13.6567 13 12 13L 10 13L 10 8L 12 8C 16.4185 8 20 11.5817 20 16C 20 20.4182 16.4185 24 12 24C 7.58154 24 4 20.4182 4 15.9999L 4 1.72144L 4.02881 1.72144L 6.49902 0ZM 0 8L 3 8L 3 13L 0 13L 0 8Z"/>
</defs>
</svg>
