<svg width="31" height="20" viewBox="0 0 31 20" version="1.1" xmlns="http://www.w3.org/2000/svg".local>
<g id="CanvasAmount" transform="translate(-7108 -2177)">
<g id="VectorAmount">
<use xlink:href="#path0_fillAmount" transform="translate(7108 2177)" fill="#777777"/>
</g>
</g>
<defs>
<path id="path0_fillAmount" fill-rule="evenodd" d="M 22.7273 18.6364L 30 18.6364C 30.5021 18.6364 30.9091 18.2293 30.9091 17.7273L 30.9091 2.27273C 30.9091 1.77065 30.5021 1.36364 30 1.36364L 22.7273 1.36364L 22.7273 18.6364ZM 24.5455 6.36364C 24.5455 7.61758 25.5634 8.63636 26.8182 8.63636C 28.0721 8.63636 29.0909 7.61837 29.0909 6.36364C 29.0909 5.10969 28.0729 4.09091 26.8182 4.09091C 25.5642 4.09091 24.5455 5.1089 24.5455 6.36364ZM 24.0909 12.2685C 24.0909 12.5218 24.2981 12.7273 24.5466 12.7273L 29.0898 12.7273C 29.3414 12.7273 29.5455 12.5257 29.5455 12.2685L 29.5455 11.3679C 29.5455 11.1145 29.3383 10.9091 29.0898 10.9091L 24.5466 10.9091C 24.2949 10.9091 24.0909 11.1106 24.0909 11.3679L 24.0909 12.2685ZM 25 15.4503C 25 15.7037 25.2059 15.9091 25.4532 15.9091L 28.1832 15.9091C 28.4335 15.9091 28.6364 15.7076 28.6364 15.4503L 28.6364 14.5497C 28.6364 14.2963 28.4304 14.0909 28.1832 14.0909L 25.4532 14.0909C 25.2029 14.0909 25 14.2924 25 14.5497L 25 15.4503ZM 10.9091 0C 10.407 0 10 0.407014 10 0.909091L 10 19.0909C 10 19.593 10.407 20 10.9091 20L 20 20C 20.5021 20 20.9091 19.593 20.9091 19.0909L 20.9091 0.909091C 20.9091 0.407014 20.5021 0 20 0L 10.9091 0ZM 12.7273 5.45455C 12.7273 6.95921 13.9489 8.18182 15.4545 8.18182C 16.9592 8.18182 18.1818 6.96016 18.1818 5.45455C 18.1818 3.94988 16.9602 2.72727 15.4545 2.72727C 13.9499 2.72727 12.7273 3.94893 12.7273 5.45455ZM 12.2727 12.2685C 12.2727 12.5218 12.4772 12.7273 12.7304 12.7273L 18.1787 12.7273C 18.4315 12.7273 18.6364 12.5257 18.6364 12.2685L 18.6364 11.3679C 18.6364 11.1145 18.4318 10.9091 18.1787 10.9091L 12.7304 10.9091C 12.4776 10.9091 12.2727 11.1106 12.2727 11.3679L 12.2727 12.2685ZM 13.6364 15.4503C 13.6364 15.7037 13.8423 15.9091 14.0895 15.9091L 16.8195 15.9091C 17.0698 15.9091 17.2727 15.7076 17.2727 15.4503L 17.2727 14.5497C 17.2727 14.2963 17.0668 14.0909 16.8195 14.0909L 14.0895 14.0909C 13.8393 14.0909 13.6364 14.2924 13.6364 14.5497L 13.6364 15.4503ZM 0.909091 1.36364C 0.407014 1.36364 0 1.77065 0 2.27273L 0 17.7273C 0 18.2293 0.407014 18.6364 0.909091 18.6364L 8.18182 18.6364L 8.18182 1.36364L 0.909091 1.36364ZM 1.81818 6.36364C 1.81818 7.61758 2.83617 8.63636 4.09091 8.63636C 5.34486 8.63636 6.36364 7.61837 6.36364 6.36364C 6.36364 5.10969 5.34565 4.09091 4.09091 4.09091C 2.83696 4.09091 1.81818 5.1089 1.81818 6.36364ZM 1.36364 12.2685C 1.36364 12.5218 1.57081 12.7273 1.81932 12.7273L 6.3625 12.7273C 6.61416 12.7273 6.81818 12.5257 6.81818 12.2685L 6.81818 11.3679C 6.81818 11.1145 6.611 10.9091 6.3625 10.9091L 1.81932 10.9091C 1.56766 10.9091 1.36364 11.1106 1.36364 11.3679L 1.36364 12.2685ZM 2.27273 15.4503C 2.27273 15.7037 2.47864 15.9091 2.72591 15.9091L 5.4559 15.9091C 5.7062 15.9091 5.90909 15.7076 5.90909 15.4503L 5.90909 14.5497C 5.90909 14.2963 5.70317 14.0909 5.4559 14.0909L 2.72591 14.0909C 2.47562 14.0909 2.27273 14.2924 2.27273 14.5497L 2.27273 15.4503Z"/>
</defs>
</svg>
