
<svg width="112" height="30" xmlns="http://www.w3.org/2000/svg">
  <g fill="none">
    <path d="M37.54 24.286V6.711h6.001c1.99 0 3.498.413 4.527 1.204 1.029.791 1.543 1.995 1.543 3.577 0 .791-.206 1.548-.652 2.167-.446.653-1.063 1.135-1.92 1.513.96.275 1.68.757 2.195 1.445.514.687.788 1.582.788 2.579 0 1.65-.514 2.923-1.577 3.817-1.063.895-2.572 1.342-4.527 1.342H37.54v-.069zm3.052-10.18h2.983c.96 0 1.68-.206 2.23-.654.548-.447.788-1.031.788-1.822 0-.86-.24-1.514-.754-1.892-.515-.378-1.27-.585-2.298-.585h-2.95v4.953zm0 2.235v5.503h3.395c.96 0 1.715-.24 2.229-.722.549-.482.823-1.135.823-1.995 0-1.823-.926-2.751-2.812-2.82h-3.635v.034zM52.286 7.812c0-.447.137-.825.411-1.135.275-.31.686-.447 1.235-.447.548 0 .926.138 1.234.447.275.31.446.688.446 1.135 0 .447-.137.825-.446 1.1-.274.31-.686.448-1.234.448-.549 0-.926-.138-1.235-.447-.274-.276-.411-.654-.411-1.101zm3.12 16.474h-2.915v-13.07h2.915v13.07zM61.956 8.053v3.164h2.298v2.166h-2.298v7.292c0 .516.103.86.309 1.066.206.206.549.344 1.063.344a3.53 3.53 0 0 0 1.029-.138v2.27a7.612 7.612 0 0 1-1.92.275c-2.264 0-3.361-1.238-3.361-3.749v-7.36h-2.16v-2.166h2.16V8.053h2.88zM73.067 13.9a6.78 6.78 0 0 0-1.2-.104c-1.338 0-2.264.516-2.71 1.548v8.942h-2.914v-13.07h2.812l.034 1.48c.72-1.135 1.68-1.72 2.95-1.72.41 0 .754.069 1.028.172V13.9zM80.097 24.527c-1.852 0-3.36-.585-4.527-1.754-1.166-1.17-1.714-2.752-1.714-4.678v-.378c0-1.307.24-2.476.754-3.508.515-1.032 1.2-1.823 2.126-2.407.892-.585 1.92-.86 3.052-.86 1.784 0 3.155.584 4.116 1.72.96 1.134 1.44 2.75 1.44 4.814v1.17h-8.539c.103 1.066.446 1.926 1.063 2.579.617.654 1.44.929 2.366.929 1.338 0 2.435-.55 3.292-1.617l1.578 1.513c-.515.792-1.235 1.376-2.092 1.823-.857.447-1.818.654-2.915.654zm-.343-11.178c-.789 0-1.44.275-1.955.86-.48.55-.823 1.341-.96 2.373h5.59v-.206c-.069-.998-.309-1.72-.789-2.236-.446-.55-1.097-.79-1.886-.79zM88.293 24.286V13.384h-1.99v-2.167h1.99v-1.204c0-1.444.411-2.58 1.2-3.37.789-.791 1.92-1.17 3.36-1.17.515 0 1.064.07 1.647.207l-.034 2.304a5.293 5.293 0 0 0-1.132-.103c-1.406 0-2.092.722-2.092 2.166v1.17h2.64v2.167h-2.64v10.902h-2.95zM96.057 7.812c0-.447.137-.825.411-1.135.274-.31.686-.447 1.235-.447.548 0 .926.138 1.234.447.275.31.446.688.446 1.135 0 .447-.137.825-.446 1.1-.274.31-.686.448-1.234.448-.549 0-.926-.138-1.235-.447-.274-.276-.411-.654-.411-1.101zm3.086 16.474h-2.915v-13.07h2.915v13.07zM105.144 24.286h-2.915V5.714h2.915v18.572zM111.11 24.286h-2.914V5.714h2.915v18.572z" fill="#fff"/>
    <g>
      <path fill-rule="evenodd" clip-rule="evenodd" d="M19.54 0h-9.08C7.446 0 5.941 0 4.32.513A6.372 6.372 0 0 0 .514 4.32C0 5.94 0 7.448 0 10.459v9.082c0 3.011 0 4.517.513 6.138a6.37 6.37 0 0 0 3.808 3.808C5.94 30 7.448 30 10.459 30h9.082c3.011 0 4.517 0 6.138-.513a6.37 6.37 0 0 0 3.809-3.808C30 24.058 30 22.552 30 19.541v-9.082c0-3.011 0-4.517-.512-6.138A6.372 6.372 0 0 0 25.678.513C24.058 0 22.552 0 19.541 0zm-8.684 5c.979 0 1.772.797 1.772 1.78v3.345h.003v.895h2.053v.002h1.662v.003c3.702.16 6.654 3.226 6.654 6.984C23 21.87 19.885 25 16.042 25c-3.798 0-6.885-3.057-6.957-6.855V14.58h-.313A1.776 1.776 0 0 1 7 12.801c0-.983.793-1.78 1.772-1.78h.312V6.78c0-.984.794-1.781 1.772-1.781zm1.775 9.581h3.367v.002h.044a3.419 3.419 0 0 1 3.41 3.426 3.419 3.419 0 0 1-3.41 3.427 3.418 3.418 0 0 1-3.408-3.291h-.003V14.58z" fill="#fff"/>
    </g>
  </g>
</svg>
