<svg viewBox="0 0 104 24" xmlns="http://www.w3.org/2000/svg">
  <path d="M0 22.215V1.52C0 .63.496.133 1.388.133h1.42c.926 0 1.388.496 1.388 1.39v6.114c0 .827-.1 1.422-.1 1.422h.067S5.65 6.35 9.318 6.35c4.46 0 7.434 3.6 7.434 8.79 0 5.39-3.337 8.86-7.7 8.86C5.255 24 3.9 21.158 3.9 21.158h-.067s.066.264.066.727v.53c0 .726-.47 1.19-1.39 1.19H1.39c-.894 0-1.39-.464-1.39-1.39zm4.064-7.04c0 2.742 1.42 5.288 4.163 5.288 2.346 0 4.263-1.884 4.263-5.223 0-3.174-1.72-5.29-4.164-5.29-2.18 0-4.262 1.62-4.262 5.224zM20.822 3.867h1.454c.892 0 1.388-.463 1.388-1.356v-.99c0-.89-.496-1.39-1.388-1.39h-1.454c-.892 0-1.354.5-1.354 1.39v.99c0 .9.462 1.36 1.354 1.36zm-1.354 18.347c0 .925.462 1.388 1.354 1.388h1.454c.892 0 1.355-.463 1.355-1.388V8.132c0-.892-.46-1.388-1.35-1.388h-1.45c-.89 0-1.35.496-1.35 1.388v14.083zm8.795-4.628c0 4.562 3.57 6.182 6.575 6.182 1.157 0 1.72-.398 1.72-1.39v-1.025c0-.925-.365-1.256-1.39-1.355-1.156-.132-2.708-.628-2.708-3.14v-6.546h2.478c.86 0 1.354-.463 1.354-1.388v-.562c0-.893-.495-1.39-1.387-1.39H32.46V3.538c0-.892-.496-1.388-1.388-1.388H29.75c-.892 0-1.388.495-1.388 1.387v3.438h-.958c-.925 0-1.387.496-1.387 1.39v.56c0 .926.462 1.39 1.354 1.39h.9v7.272zm11.102 4.628c0 .925.463 1.388 1.355 1.388h1.454c.892 0 1.354-.463 1.354-1.388v-5.422c0-3.074 1.487-6.115 4.56-6.115.892 0 1.42-.496 1.42-1.39V8c0-.926-.33-1.388-1.255-1.388-2.38 0-4.23 2.248-4.89 4.264h-.066s.1-.53.1-1.157V8.13c0-.892-.497-1.388-1.39-1.388H40.72c-.892 0-1.355.496-1.355 1.388v14.083zm10.382-7.04c0-5.192 3.502-8.828 8.557-8.828 4.79 0 7.468 3.405 7.468 8.033 0 .72-.628 1.42-1.454 1.42H54.042c.264 3.04 2.51 4.63 5.055 4.63 1.553 0 2.842-.6 3.635-1.09.826-.4 1.42-.3 1.85.46l.397.66c.39.76.26 1.42-.47 1.85C63.42 23 61.44 24 58.79 24c-5.585 0-9.054-4.04-9.054-8.83zm4.394-1.92h7.47c-.06-2.346-1.48-3.734-3.4-3.734-2.15 0-3.66 1.488-4.06 3.736zm15.11 8.96c0 .925.47 1.388 1.36 1.388h1.46c.89 0 1.39-.463 1.39-1.388v-11.9h2.24c.895 0 1.357-.464 1.357-1.39v-.56c0-.894-.464-1.39-1.357-1.39h-2.25v-.628c0-2.446 1.65-2.678 2.675-2.744.926-.066 1.42-.463 1.42-1.355v-.86C77.54.463 77.08 0 76.188 0h-.496c-1.717 0-6.442.826-6.442 6.182v.793h-.826c-.89 0-1.353.496-1.353 1.39v.56c0 .926.46 1.39 1.36 1.39h.83v11.9zM81.79 3.868h1.454c.892 0 1.387-.463 1.387-1.356v-.99c0-.894-.49-1.39-1.38-1.39h-1.46c-.89 0-1.35.496-1.35 1.39v.99c0 .893.47 1.356 1.36 1.356zm-1.355 18.347c0 .925.463 1.388 1.355 1.388h1.454c.892 0 1.354-.463 1.354-1.388V8.132c0-.892-.462-1.388-1.354-1.388H81.79c-.892 0-1.355.496-1.355 1.388v14.083zm8.293-3.868c0 4.827 2.875 5.422 5.122 5.422.99 0 1.388-.57 1.388-1.43v-1.12c0-.76-.43-1.13-1.025-1.19-.628-.07-1.32-.37-1.32-2.02V1.52c0-.892-.464-1.388-1.356-1.388h-1.454c-.892 0-1.355.496-1.355 1.39v16.825zm8.763 0c0 4.827 2.88 5.422 5.13 5.422.99 0 1.39-.57 1.39-1.43v-1.12c0-.76-.43-1.13-1.02-1.19-.63-.07-1.32-.37-1.32-2.02V1.52c0-.892-.46-1.388-1.352-1.388h-1.46c-.893 0-1.355.496-1.355 1.39v16.825z"/>
</svg>
