<svg width="24" height="18" viewBox="0 0 24 18" version="1.1" xmlns="http://www.w3.org/2000/svg" xmlns:xlink="http://www.w3.org/1999/xlink">
<title>flag</title>
<desc>Created using Figma</desc>
<g id="Canvas" transform="translate(230 405)">
<clipPath id="clip-0" clip-rule="evenodd">
<path d="M -230 -405L -206 -405L -206 -387L -230 -387L -230 -405Z" fill="#FFFFFF"/>
</clipPath>
<g id="flag" clip-path="url(#clip-0)">
<g id="Rectangle">
<use xlink:href="#path0_fill" transform="translate(-230 -405)" fill="#919191"/>
</g>
<g id="?">
<use xlink:href="#path1_fill" transform="translate(-221 -401)" fill="#FFFFFF"/>
</g>
</g>
</g>
<defs>
<path id="path0_fill" d="M 0 0L 24 0L 24 18L 0 18L 0 0Z"/>
<path id="path1_fill" d="M 2.08406 7.88536L 2.69593 7.88536C 3.06305 7.88536 3.23131 7.76381 3.30779 7.44475L 3.33839 7.18646C 3.52195 5.65193 6 5.24171 6 2.85635C 6 1.06354 4.37856 0 2.65004 0C 1.56398 0 0.737962 0.395028 0.279063 0.698895C -0.0727595 0.926796 -0.0727595 1.21547 0.171987 1.54972L 0.432029 1.92956C 0.646182 2.26381 0.998004 2.26381 1.34983 2.08149C 1.62517 1.94475 2.02288 1.77762 2.48178 1.77762C 3.32309 1.77762 3.96555 2.32459 3.96555 3.03867C 3.96555 4.5884 1.44161 5.08978 1.44161 7.01934L 1.44161 7.26243C 1.44161 7.67265 1.67106 7.88536 2.08406 7.88536ZM 1.44161 10.3619C 1.44161 10.7873 1.67106 11 2.08406 11L 2.69593 11C 3.10894 11 3.32309 10.7873 3.32309 10.3619L 3.32309 9.83011C 3.32309 9.41989 3.10894 9.19199 2.69593 9.19199L 2.08406 9.19199C 1.67106 9.19199 1.44161 9.41989 1.44161 9.83011L 1.44161 10.3619Z"/>
</defs>
</svg>
